<svg width="42" height="42" viewBox="0 0 42 42" fill="none" xmlns="http://www.w3.org/2000/svg">
<path d="M28.1114 4.39758C28.0304 4.9061 27.9898 5.41461 27.9898 5.92312C27.9898 10.4997 31.6784 14.1997 36.2181 14.1997C36.7248 14.1997 37.2112 14.1407 37.7178 14.0593V30.4721C37.7178 37.3695 33.6645 41.458 26.7738 41.458H11.7988C4.90612 41.458 0.852783 37.3695 0.852783 30.4721V15.4221C0.852783 8.50636 4.90612 4.39758 11.7988 4.39758H28.1114ZM28.5188 16.7646C27.9696 16.7036 27.4244 16.9477 27.0981 17.3952L22.1956 23.7617L16.5797 19.3275C16.2352 19.0631 15.8298 18.9593 15.4245 19.0021C15.0212 19.0631 14.6564 19.2848 14.4112 19.6102L8.41428 27.4434L8.29065 27.6264C7.94612 28.2753 8.10825 29.1092 8.71625 29.5588C8.99998 29.7418 9.30398 29.8639 9.64852 29.8639C10.1167 29.8842 10.5605 29.6381 10.8442 29.2537L15.9312 22.6817L21.7072 27.0365L21.8896 27.1566C22.5381 27.5023 23.3488 27.3417 23.8149 26.7294L29.672 19.1444L29.5909 19.1851C29.9152 18.7376 29.976 18.1681 29.753 17.6596C29.5321 17.1511 29.0437 16.8053 28.5188 16.7646ZM36.502 0.776367C39.1975 0.776367 41.3863 2.97314 41.3863 5.67842C41.3863 8.38371 39.1975 10.5805 36.502 10.5805C33.8066 10.5805 31.6178 8.38371 31.6178 5.67842C31.6178 2.97314 33.8066 0.776367 36.502 0.776367Z" fill="#FACC15"/>
</svg>
