<svg width="114" height="51" viewBox="0 0 114 51" fill="none" xmlns="http://www.w3.org/2000/svg">
<rect x="0.506592" y="0.903809" width="113.493" height="49.8342" rx="24.9171" fill="#F9FAFB"/>
<path d="M35.0023 31.125L32.2182 20.9432H33.4711L35.5989 29.2358H35.6983L37.8659 20.9432H39.258L41.4256 29.2358H41.525L43.6529 20.9432H44.9057L42.1216 31.125H40.8489L38.6017 23.0114H38.5222L36.275 31.125H35.0023ZM47.4561 26.5312V31.125H46.2828V20.9432H47.4561V24.6818H47.5556C47.7346 24.2874 48.003 23.9742 48.361 23.7422C48.7222 23.5069 49.2028 23.3892 49.8027 23.3892C50.3231 23.3892 50.7788 23.4936 51.1699 23.7024C51.561 23.9079 51.8643 24.2244 52.0797 24.652C52.2985 25.0762 52.4078 25.6165 52.4078 26.2727V31.125H51.2346V26.3523C51.2346 25.7457 51.0771 25.2768 50.7623 24.9453C50.4507 24.6106 50.0182 24.4432 49.4647 24.4432C49.0802 24.4432 48.7355 24.5244 48.4306 24.6868C48.129 24.8492 47.8903 25.0862 47.7147 25.3977C47.5423 25.7093 47.4561 26.0871 47.4561 26.5312ZM57.6566 31.2841C56.9672 31.2841 56.3623 31.12 55.842 30.7919C55.3249 30.4638 54.9206 30.0047 54.6289 29.4148C54.3406 28.8248 54.1964 28.1354 54.1964 27.3466C54.1964 26.5511 54.3406 25.8568 54.6289 25.2635C54.9206 24.6702 55.3249 24.2095 55.842 23.8814C56.3623 23.5533 56.9672 23.3892 57.6566 23.3892C58.346 23.3892 58.9492 23.5533 59.4663 23.8814C59.9866 24.2095 60.391 24.6702 60.6793 25.2635C60.971 25.8568 61.1168 26.5511 61.1168 27.3466C61.1168 28.1354 60.971 28.8248 60.6793 29.4148C60.391 30.0047 59.9866 30.4638 59.4663 30.7919C58.9492 31.12 58.346 31.2841 57.6566 31.2841ZM57.6566 30.2301C58.1803 30.2301 58.6112 30.0959 58.9492 29.8274C59.2873 29.5589 59.5375 29.206 59.6999 28.7685C59.8623 28.331 59.9435 27.857 59.9435 27.3466C59.9435 26.8362 59.8623 26.3606 59.6999 25.9197C59.5375 25.4789 59.2873 25.1226 58.9492 24.8509C58.6112 24.5791 58.1803 24.4432 57.6566 24.4432C57.1329 24.4432 56.7021 24.5791 56.364 24.8509C56.0259 25.1226 55.7757 25.4789 55.6133 25.9197C55.4509 26.3606 55.3697 26.8362 55.3697 27.3466C55.3697 27.857 55.4509 28.331 55.6133 28.7685C55.7757 29.206 56.0259 29.5589 56.364 29.8274C56.7021 30.0959 57.1329 30.2301 57.6566 30.2301ZM63.006 31.125H61.7134L65.4521 20.9432H66.7248L70.4634 31.125H69.1708L66.1282 22.554H66.0487L63.006 31.125ZM63.4833 27.1477H68.6935V28.2415H63.4833V27.1477ZM71.8903 31.125V23.4886H73.0238V24.6818H73.1232C73.2823 24.2741 73.5392 23.9576 73.8938 23.7322C74.2485 23.5036 74.6744 23.3892 75.1715 23.3892C75.6753 23.3892 76.0946 23.5036 76.4293 23.7322C76.7674 23.9576 77.0309 24.2741 77.2198 24.6818H77.2994C77.4949 24.2874 77.7882 23.9742 78.1793 23.7422C78.5704 23.5069 79.0394 23.3892 79.5863 23.3892C80.2691 23.3892 80.8275 23.603 81.2617 24.0305C81.6959 24.4548 81.913 25.116 81.913 26.0142V31.125H80.7397V26.0142C80.7397 25.4508 80.5856 25.0481 80.2773 24.8061C79.9691 24.5642 79.6062 24.4432 79.1886 24.4432C78.6516 24.4432 78.2357 24.6056 77.9407 24.9304C77.6457 25.2519 77.4982 25.6596 77.4982 26.1534V31.125H76.305V25.8949C76.305 25.4607 76.1642 25.111 75.8825 24.8459C75.6007 24.5774 75.2378 24.4432 74.7937 24.4432C74.4888 24.4432 74.2037 24.5244 73.9386 24.6868C73.6767 24.8492 73.4646 25.0746 73.3022 25.3629C73.1431 25.648 73.0636 25.9777 73.0636 26.3523V31.125H71.8903ZM85.4503 20.9432V31.125H84.2173V20.9432H85.4503Z" fill="#CA8A04"/>
</svg>
