<svg width="174" height="66" viewBox="0 0 174 66" fill="none" xmlns="http://www.w3.org/2000/svg">
<g filter="url(#filter0_d_810_1239)">
<rect x="4.47412" y="0.541016" width="165" height="57" rx="5" fill="url(#paint0_linear_810_1239)" shape-rendering="crispEdges"/>
<path d="M50.0494 27.6703H48.4983C48.4386 27.3388 48.3276 27.0472 48.1652 26.7953C48.0028 26.5434 47.8039 26.3296 47.5686 26.1539C47.3333 25.9783 47.0698 25.8457 46.7781 25.7562C46.4897 25.6667 46.1832 25.622 45.8584 25.622C45.2717 25.622 44.7464 25.7695 44.2824 26.0645C43.8217 26.3594 43.4571 26.792 43.1886 27.362C42.9235 27.9321 42.7909 28.6281 42.7909 29.4501C42.7909 30.2787 42.9235 30.978 43.1886 31.5481C43.4571 32.1182 43.8233 32.5491 44.2873 32.8407C44.7513 33.1324 45.2734 33.2782 45.8534 33.2782C46.1749 33.2782 46.4798 33.2351 46.7682 33.149C47.0598 33.0595 47.3233 32.9286 47.5586 32.7562C47.794 32.5839 47.9928 32.3734 48.1552 32.1248C48.3209 31.8729 48.4353 31.5846 48.4983 31.2598L50.0494 31.2647C49.9665 31.7652 49.8058 32.2259 49.5672 32.6468C49.3318 33.0645 49.0286 33.4257 48.6574 33.7306C48.2895 34.0323 47.8685 34.2659 47.3946 34.4316C46.9206 34.5974 46.4036 34.6802 45.8434 34.6802C44.9618 34.6802 44.1763 34.4714 43.4869 34.0538C42.7975 33.6329 42.254 33.0313 41.8562 32.2491C41.4618 31.4669 41.2646 30.5339 41.2646 29.4501C41.2646 28.363 41.4635 27.43 41.8612 26.6511C42.2589 25.8689 42.8025 25.269 43.4919 24.8514C44.1813 24.4305 44.9651 24.22 45.8434 24.22C46.3837 24.22 46.8875 24.2979 47.3548 24.4537C47.8254 24.6061 48.248 24.8315 48.6226 25.1298C48.9971 25.4248 49.307 25.786 49.5522 26.2136C49.7975 26.6378 49.9632 27.1234 50.0494 27.6703ZM60.7321 29.4501C60.7321 30.5372 60.5332 31.4719 60.1355 32.2541C59.7378 33.033 59.1926 33.6329 58.4999 34.0538C57.8105 34.4714 57.0266 34.6802 56.1483 34.6802C55.2667 34.6802 54.4795 34.4714 53.7868 34.0538C53.0974 33.6329 52.5538 33.0313 52.1561 32.2491C51.7584 31.4669 51.5595 30.5339 51.5595 29.4501C51.5595 28.363 51.7584 27.43 52.1561 26.6511C52.5538 25.8689 53.0974 25.269 53.7868 24.8514C54.4795 24.4305 55.2667 24.22 56.1483 24.22C57.0266 24.22 57.8105 24.4305 58.4999 24.8514C59.1926 25.269 59.7378 25.8689 60.1355 26.6511C60.5332 27.43 60.7321 28.363 60.7321 29.4501ZM59.2108 29.4501C59.2108 28.6215 59.0766 27.9238 58.8081 27.3571C58.543 26.787 58.1784 26.3561 57.7144 26.0645C57.2537 25.7695 56.7316 25.622 56.1483 25.622C55.5617 25.622 55.038 25.7695 54.5773 26.0645C54.1166 26.3561 53.752 26.787 53.4835 27.3571C53.2184 27.9238 53.0858 28.6215 53.0858 29.4501C53.0858 30.2787 53.2184 30.978 53.4835 31.5481C53.752 32.1149 54.1166 32.5458 54.5773 32.8407C55.038 33.1324 55.5617 33.2782 56.1483 33.2782C56.7316 33.2782 57.2537 33.1324 57.7144 32.8407C58.1784 32.5458 58.543 32.1149 58.8081 31.5481C59.0766 30.978 59.2108 30.2787 59.2108 29.4501ZM70.8655 24.3592V34.541H69.4535L64.2781 27.0737H64.1836V34.541H62.6474V24.3592H64.0693L69.2497 31.8365H69.3441V24.3592H70.8655ZM72.6043 25.6816V24.3592H80.4842V25.6816H77.3074V34.541H75.7761V25.6816H72.6043ZM81.8825 34.541H80.2518L83.9159 24.3592H85.6907L89.3548 34.541H87.7241L84.8456 26.2086H84.766L81.8825 34.541ZM82.1559 30.5538H87.4457V31.8464H82.1559V30.5538ZM98.8033 27.6703H97.2522C97.1925 27.3388 97.0815 27.0472 96.9191 26.7953C96.7567 26.5434 96.5578 26.3296 96.3225 26.1539C96.0872 25.9783 95.8237 25.8457 95.532 25.7562C95.2437 25.6667 94.9371 25.622 94.6123 25.622C94.0256 25.622 93.5003 25.7695 93.0363 26.0645C92.5756 26.3594 92.211 26.792 91.9425 27.362C91.6774 27.9321 91.5448 28.6281 91.5448 29.4501C91.5448 30.2787 91.6774 30.978 91.9425 31.5481C92.211 32.1182 92.5772 32.5491 93.0412 32.8407C93.5053 33.1324 94.0273 33.2782 94.6073 33.2782C94.9288 33.2782 95.2337 33.2351 95.5221 33.149C95.8137 33.0595 96.0772 32.9286 96.3125 32.7562C96.5479 32.5839 96.7467 32.3734 96.9091 32.1248C97.0749 31.8729 97.1892 31.5846 97.2522 31.2598L98.8033 31.2647C98.7205 31.7652 98.5597 32.2259 98.3211 32.6468C98.0857 33.0645 97.7825 33.4257 97.4113 33.7306C97.0434 34.0323 96.6224 34.2659 96.1485 34.4316C95.6745 34.5974 95.1575 34.6802 94.5973 34.6802C93.7157 34.6802 92.9302 34.4714 92.2408 34.0538C91.5514 33.6329 91.0079 33.0313 90.6101 32.2491C90.2157 31.4669 90.0185 30.5339 90.0185 29.4501C90.0185 28.363 90.2174 27.43 90.6151 26.6511C91.0128 25.8689 91.5564 25.269 92.2458 24.8514C92.9352 24.4305 93.719 24.22 94.5973 24.22C95.1376 24.22 95.6414 24.2979 96.1087 24.4537C96.5794 24.6061 97.0019 24.8315 97.3765 25.1298C97.751 25.4248 98.0609 25.786 98.3062 26.2136C98.5514 26.6378 98.7171 27.1234 98.8033 27.6703ZM100.139 25.6816V24.3592H108.019V25.6816H104.843V34.541H103.311V25.6816H100.139ZM113.466 24.3592H115.33L118.572 32.274H118.691L121.932 24.3592H123.797V34.541H122.335V27.1731H122.241L119.238 34.5261H118.025L115.022 27.1681H114.927V34.541H113.466V24.3592ZM126.03 34.541V24.3592H132.414V25.6816H127.566V28.7839H132.081V30.1014H127.566V33.2186H132.473V34.541H126.03Z" fill="#F9FAFB"/>
</g>
<defs>
<filter id="filter0_d_810_1239" x="0.474121" y="0.541016" width="173" height="65" filterUnits="userSpaceOnUse" color-interpolation-filters="sRGB">
<feFlood flood-opacity="0" result="BackgroundImageFix"/>
<feColorMatrix in="SourceAlpha" type="matrix" values="0 0 0 0 0 0 0 0 0 0 0 0 0 0 0 0 0 0 127 0" result="hardAlpha"/>
<feOffset dy="4"/>
<feGaussianBlur stdDeviation="2"/>
<feComposite in2="hardAlpha" operator="out"/>
<feColorMatrix type="matrix" values="0 0 0 0 0 0 0 0 0 0 0 0 0 0 0 0 0 0 0.25 0"/>
<feBlend mode="normal" in2="BackgroundImageFix" result="effect1_dropShadow_810_1239"/>
<feBlend mode="normal" in="SourceGraphic" in2="effect1_dropShadow_810_1239" result="shape"/>
</filter>
<linearGradient id="paint0_linear_810_1239" x1="13.393" y1="0.541006" x2="160.82" y2="26.9142" gradientUnits="userSpaceOnUse">
<stop stop-color="#AF51C5"/>
<stop offset="1" stop-color="#6E297E"/>
</linearGradient>
</defs>
</svg>
