<svg width="131" height="51" viewBox="0 0 131 51" fill="none" xmlns="http://www.w3.org/2000/svg">
<rect x="0.253174" y="0.903809" width="130.72" height="49.8342" rx="24.9171" fill="#F9FAFB"/>
<path d="M33.3837 26.0341C33.3837 27.108 33.1898 28.036 32.802 28.8182C32.4142 29.6004 31.8823 30.2036 31.2061 30.6278C30.53 31.0521 29.7577 31.2642 28.8894 31.2642C28.021 31.2642 27.2487 31.0521 26.5726 30.6278C25.8965 30.2036 25.3645 29.6004 24.9767 28.8182C24.5889 28.036 24.395 27.108 24.395 26.0341C24.395 24.9602 24.5889 24.0322 24.9767 23.25C25.3645 22.4678 25.8965 21.8646 26.5726 21.4403C27.2487 21.0161 28.021 20.804 28.8894 20.804C29.7577 20.804 30.53 21.0161 31.2061 21.4403C31.8823 21.8646 32.4142 22.4678 32.802 23.25C33.1898 24.0322 33.3837 24.9602 33.3837 26.0341ZM32.1905 26.0341C32.1905 25.1525 32.043 24.4084 31.748 23.8018C31.4564 23.1953 31.0603 22.7363 30.5598 22.4247C30.0627 22.1132 29.5058 21.9574 28.8894 21.9574C28.2729 21.9574 27.7144 22.1132 27.2139 22.4247C26.7168 22.7363 26.3207 23.1953 26.0257 23.8018C25.7341 24.4084 25.5882 25.1525 25.5882 26.0341C25.5882 26.9157 25.7341 27.6598 26.0257 28.2663C26.3207 28.8729 26.7168 29.3319 27.2139 29.6435C27.7144 29.955 28.2729 30.1108 28.8894 30.1108C29.5058 30.1108 30.0627 29.955 30.5598 29.6435C31.0603 29.3319 31.4564 28.8729 31.748 28.2663C32.043 27.6598 32.1905 26.9157 32.1905 26.0341ZM38.6188 23.4886V24.483H34.6614V23.4886H38.6188ZM35.8148 21.6591H36.9881V28.9375C36.9881 29.2689 37.0361 29.5175 37.1323 29.6832C37.2317 29.8456 37.3576 29.955 37.5101 30.0114C37.6659 30.0644 37.8299 30.0909 38.0023 30.0909C38.1315 30.0909 38.2376 30.0843 38.3205 30.071C38.4033 30.0545 38.4696 30.0412 38.5193 30.0312L38.758 31.0852C38.6784 31.1151 38.5674 31.1449 38.4249 31.1747C38.2824 31.2079 38.1017 31.2244 37.883 31.2244C37.5515 31.2244 37.2267 31.1532 36.9085 31.0107C36.5937 30.8681 36.3318 30.651 36.123 30.3594C35.9175 30.0677 35.8148 29.6998 35.8148 29.2557V21.6591ZM41.721 26.5312V31.125H40.5477V20.9432H41.721V24.6818H41.8205C41.9994 24.2874 42.2679 23.9742 42.6259 23.7422C42.9871 23.5069 43.4677 23.3892 44.0676 23.3892C44.588 23.3892 45.0437 23.4936 45.4348 23.7024C45.8259 23.9079 46.1292 24.2244 46.3446 24.652C46.5634 25.0762 46.6727 25.6165 46.6727 26.2727V31.125H45.4994V26.3523C45.4994 25.7457 45.342 25.2768 45.0271 24.9453C44.7156 24.6106 44.2831 24.4432 43.7296 24.4432C43.3451 24.4432 43.0004 24.5244 42.6955 24.6868C42.3939 24.8492 42.1552 25.0862 41.9796 25.3977C41.8072 25.7093 41.721 26.0871 41.721 26.5312ZM52.0209 31.2841C51.2851 31.2841 50.6504 31.1217 50.1168 30.7969C49.5865 30.4688 49.1772 30.0114 48.8888 29.4247C48.6038 28.8348 48.4613 28.1487 48.4613 27.3665C48.4613 26.5843 48.6038 25.8949 48.8888 25.2983C49.1772 24.6984 49.5782 24.2311 50.092 23.8963C50.609 23.5582 51.2122 23.3892 51.9016 23.3892C52.2993 23.3892 52.6921 23.4555 53.0799 23.5881C53.4677 23.7206 53.8206 23.9361 54.1388 24.2344C54.457 24.5294 54.7106 24.9205 54.8995 25.4077C55.0884 25.8949 55.1829 26.4948 55.1829 27.2074V27.7045H49.2965V26.6903H53.9897C53.9897 26.2595 53.9035 25.875 53.7312 25.5369C53.5621 25.1989 53.3202 24.9321 53.0053 24.7365C52.6938 24.541 52.3259 24.4432 51.9016 24.4432C51.4343 24.4432 51.0299 24.5592 50.6885 24.7912C50.3505 25.0199 50.0903 25.3182 49.908 25.6861C49.7257 26.054 49.6346 26.4484 49.6346 26.8693V27.5455C49.6346 28.1222 49.734 28.611 49.9329 29.0121C50.135 29.4098 50.4151 29.7131 50.7731 29.9219C51.131 30.1274 51.547 30.2301 52.0209 30.2301C52.3292 30.2301 52.6076 30.187 52.8562 30.1009C53.1081 30.0114 53.3251 29.8788 53.5074 29.7031C53.6897 29.5241 53.8306 29.3021 53.93 29.0369L55.0635 29.3551C54.9442 29.7396 54.7437 30.0777 54.462 30.3693C54.1803 30.6577 53.8322 30.883 53.4179 31.0455C53.0036 31.2045 52.538 31.2841 52.0209 31.2841ZM56.9677 31.125V23.4886H58.1012V24.642H58.1807C58.3199 24.2642 58.5718 23.9576 58.9364 23.7223C59.301 23.487 59.712 23.3693 60.1694 23.3693C60.2555 23.3693 60.3633 23.371 60.4925 23.3743C60.6218 23.3776 60.7196 23.3826 60.7858 23.3892V24.5824C60.7461 24.5724 60.6549 24.5575 60.5124 24.5376C60.3732 24.5144 60.2257 24.5028 60.0699 24.5028C59.6987 24.5028 59.3673 24.5807 59.0756 24.7365C58.7873 24.889 58.5586 25.1011 58.3895 25.3729C58.2238 25.6413 58.141 25.9479 58.141 26.2926V31.125H56.9677ZM67.8443 31.125L65.5176 23.4886H66.7505L68.4011 29.3352H68.4806L70.1113 23.4886H71.3641L72.9749 29.3153H73.0545L74.7051 23.4886H75.938L73.6113 31.125H72.4579L70.7874 25.2585H70.6681L68.9977 31.125H67.8443ZM80.3317 31.2841C79.6423 31.2841 79.0374 31.12 78.517 30.7919C78 30.4638 77.5956 30.0047 77.304 29.4148C77.0156 28.8248 76.8714 28.1354 76.8714 27.3466C76.8714 26.5511 77.0156 25.8568 77.304 25.2635C77.5956 24.6702 78 24.2095 78.517 23.8814C79.0374 23.5533 79.6423 23.3892 80.3317 23.3892C81.021 23.3892 81.6243 23.5533 82.1413 23.8814C82.6617 24.2095 83.066 24.6702 83.3544 25.2635C83.646 25.8568 83.7919 26.5511 83.7919 27.3466C83.7919 28.1354 83.646 28.8248 83.3544 29.4148C83.066 30.0047 82.6617 30.4638 82.1413 30.7919C81.6243 31.12 81.021 31.2841 80.3317 31.2841ZM80.3317 30.2301C80.8553 30.2301 81.2862 30.0959 81.6243 29.8274C81.9623 29.5589 82.2126 29.206 82.375 28.7685C82.5374 28.331 82.6186 27.857 82.6186 27.3466C82.6186 26.8362 82.5374 26.3606 82.375 25.9197C82.2126 25.4789 81.9623 25.1226 81.6243 24.8509C81.2862 24.5791 80.8553 24.4432 80.3317 24.4432C79.808 24.4432 79.3771 24.5791 79.039 24.8509C78.701 25.1226 78.4507 25.4789 78.2883 25.9197C78.1259 26.3606 78.0447 26.8362 78.0447 27.3466C78.0447 27.857 78.1259 28.331 78.2883 28.7685C78.4507 29.206 78.701 29.5589 79.039 29.8274C79.3771 30.0959 79.808 30.2301 80.3317 30.2301ZM85.5829 31.125V23.4886H86.7164V24.642H86.796C86.9352 24.2642 87.1871 23.9576 87.5516 23.7223C87.9162 23.487 88.3272 23.3693 88.7846 23.3693C88.8708 23.3693 88.9785 23.371 89.1078 23.3743C89.237 23.3776 89.3348 23.3826 89.4011 23.3892V24.5824C89.3613 24.5724 89.2702 24.5575 89.1276 24.5376C88.9884 24.5144 88.8409 24.5028 88.6852 24.5028C88.314 24.5028 87.9825 24.5807 87.6909 24.7365C87.4025 24.889 87.1738 25.1011 87.0048 25.3729C86.8391 25.6413 86.7562 25.9479 86.7562 26.2926V31.125H85.5829ZM91.8856 28.3409L91.8657 26.8892H92.1044L95.4453 23.4886H96.897L93.3373 27.0881H93.2379L91.8856 28.3409ZM90.7919 31.125V20.9432H91.9652V31.125H90.7919ZM95.6442 31.125L92.6612 27.3466L93.4964 26.5312L97.1356 31.125H95.6442ZM103.816 25.1989L102.762 25.4972C102.696 25.3215 102.598 25.1508 102.469 24.9851C102.343 24.8161 102.171 24.6768 101.952 24.5675C101.733 24.4581 101.453 24.4034 101.112 24.4034C100.644 24.4034 100.255 24.5111 99.9433 24.7266C99.6351 24.9387 99.481 25.2088 99.481 25.5369C99.481 25.8286 99.587 26.0589 99.7992 26.228C100.011 26.397 100.343 26.5379 100.793 26.6506L101.927 26.929C102.61 27.0947 103.119 27.3482 103.453 27.6896C103.788 28.0277 103.955 28.4635 103.955 28.9972C103.955 29.4347 103.829 29.8258 103.578 30.1705C103.329 30.5152 102.981 30.7869 102.534 30.9858C102.086 31.1847 101.566 31.2841 100.972 31.2841C100.194 31.2841 99.5489 31.1151 99.0385 30.777C98.5281 30.4389 98.2049 29.9451 98.069 29.2955L99.1827 29.017C99.2887 29.428 99.4893 29.7363 99.7842 29.9418C100.083 30.1473 100.472 30.25 100.953 30.25C101.499 30.25 101.934 30.134 102.255 29.902C102.58 29.6667 102.742 29.3849 102.742 29.0568C102.742 28.7917 102.65 28.5696 102.464 28.3906C102.278 28.2083 101.993 28.0724 101.609 27.983L100.336 27.6847C99.6368 27.5189 99.123 27.2621 98.7949 26.9141C98.4701 26.5627 98.3077 26.1236 98.3077 25.5966C98.3077 25.1657 98.4287 24.7846 98.6706 24.4531C98.9159 24.1217 99.249 23.8615 99.6699 23.6726C100.094 23.4837 100.575 23.3892 101.112 23.3892C101.867 23.3892 102.461 23.5549 102.891 23.8864C103.326 24.2178 103.634 24.6553 103.816 25.1989Z" fill="#6A62B7"/>
</svg>
