<svg width="270" height="84" viewBox="0 0 270 84" fill="none" xmlns="http://www.w3.org/2000/svg">
<rect width="270" height="84" rx="16" fill="#0047B2"/>
<path d="M75.316 50H71.884L70.564 46.136H64.492L63.172 50H59.788L65.572 34.16H69.532L75.316 50ZM65.236 43.688H69.82L67.516 36.776L65.236 43.688ZM84.3856 50.24C83.6496 50.24 82.9776 50.088 82.3696 49.784C81.7776 49.464 81.2816 49.032 80.8816 48.488C80.4976 47.928 80.2336 47.304 80.0896 46.616L80.4256 46.184L80.2336 50H77.3296V32.744H80.6176V41.384L80.3056 40.88C80.5616 39.984 81.0496 39.24 81.7696 38.648C82.4896 38.056 83.3936 37.76 84.4816 37.76C85.4256 37.76 86.2816 38.008 87.0496 38.504C87.8176 39 88.4176 39.712 88.8496 40.64C89.2976 41.568 89.5216 42.696 89.5216 44.024C89.5216 45.32 89.2976 46.432 88.8496 47.36C88.4176 48.288 87.8096 49 87.0256 49.496C86.2576 49.992 85.3776 50.24 84.3856 50.24ZM83.4016 47.72C84.2816 47.72 84.9696 47.408 85.4656 46.784C85.9776 46.144 86.2336 45.216 86.2336 44C86.2336 42.784 85.9856 41.864 85.4896 41.24C84.9936 40.6 84.3056 40.28 83.4256 40.28C82.8496 40.28 82.3536 40.432 81.9376 40.736C81.5216 41.04 81.1936 41.472 80.9536 42.032C80.7296 42.592 80.6176 43.256 80.6176 44.024C80.6176 44.808 80.7296 45.48 80.9536 46.04C81.1936 46.584 81.5216 47 81.9376 47.288C82.3696 47.576 82.8576 47.72 83.4016 47.72ZM97.8484 37.76C99.0644 37.76 100.128 38.008 101.04 38.504C101.968 39 102.688 39.712 103.2 40.64C103.728 41.568 103.992 42.688 103.992 44C103.992 45.296 103.728 46.416 103.2 47.36C102.688 48.288 101.968 49 101.04 49.496C100.128 49.992 99.0644 50.24 97.8484 50.24C96.6484 50.24 95.5844 49.992 94.6564 49.496C93.7284 49 93.0004 48.288 92.4724 47.36C91.9604 46.416 91.7044 45.296 91.7044 44C91.7044 42.688 91.9604 41.568 92.4724 40.64C93.0004 39.712 93.7284 39 94.6564 38.504C95.5844 38.008 96.6484 37.76 97.8484 37.76ZM97.8484 40.208C97.2404 40.208 96.7204 40.352 96.2884 40.64C95.8724 40.912 95.5524 41.328 95.3284 41.888C95.1044 42.448 94.9924 43.152 94.9924 44C94.9924 44.848 95.1044 45.552 95.3284 46.112C95.5524 46.672 95.8724 47.096 96.2884 47.384C96.7204 47.656 97.2404 47.792 97.8484 47.792C98.4404 47.792 98.9444 47.656 99.3604 47.384C99.7924 47.096 100.12 46.672 100.344 46.112C100.568 45.552 100.68 44.848 100.68 44C100.68 43.152 100.568 42.448 100.344 41.888C100.12 41.328 99.7924 40.912 99.3604 40.64C98.9444 40.352 98.4404 40.208 97.8484 40.208ZM110.92 50.24C110.12 50.24 109.4 50.096 108.76 49.808C108.12 49.52 107.608 49.064 107.224 48.44C106.856 47.8 106.672 46.976 106.672 45.968V38H109.96V45.176C109.96 46.104 110.152 46.752 110.536 47.12C110.92 47.472 111.472 47.648 112.192 47.648C112.528 47.648 112.856 47.592 113.176 47.48C113.496 47.352 113.776 47.16 114.016 46.904C114.272 46.648 114.472 46.32 114.616 45.92C114.76 45.504 114.832 45.016 114.832 44.456V38H118.12V50H115.192L115.072 47.912C114.672 48.712 114.12 49.304 113.416 49.688C112.728 50.056 111.896 50.24 110.92 50.24ZM125.828 34.328V46.088C125.828 46.664 125.972 47.088 126.26 47.36C126.564 47.616 126.972 47.744 127.484 47.744C127.884 47.744 128.236 47.688 128.54 47.576C128.844 47.448 129.116 47.28 129.356 47.072L129.884 49.256C129.5 49.56 129.02 49.8 128.444 49.976C127.868 50.152 127.26 50.24 126.62 50.24C125.82 50.24 125.108 50.12 124.484 49.88C123.876 49.64 123.396 49.256 123.044 48.728C122.708 48.2 122.54 47.496 122.54 46.616V35.24L125.828 34.328ZM129.668 38V40.448H120.332V38H129.668ZM139.228 50V38H142.18L142.3 40.16C142.7 39.36 143.244 38.76 143.932 38.36C144.636 37.96 145.412 37.76 146.26 37.76C147.124 37.76 147.9 37.96 148.588 38.36C149.292 38.76 149.82 39.352 150.172 40.136C150.428 39.608 150.772 39.168 151.204 38.816C151.636 38.464 152.116 38.2 152.644 38.024C153.172 37.848 153.708 37.76 154.252 37.76C155.036 37.76 155.748 37.92 156.388 38.24C157.044 38.56 157.564 39.04 157.948 39.68C158.332 40.32 158.524 41.136 158.524 42.128V50H155.236V42.776C155.236 41.896 155.044 41.272 154.66 40.904C154.276 40.536 153.78 40.352 153.172 40.352C152.692 40.352 152.244 40.472 151.828 40.712C151.428 40.952 151.108 41.312 150.868 41.792C150.644 42.256 150.532 42.84 150.532 43.544V50H147.244V42.776C147.244 41.896 147.044 41.272 146.644 40.904C146.26 40.536 145.764 40.352 145.156 40.352C144.74 40.352 144.324 40.464 143.908 40.688C143.508 40.912 143.172 41.264 142.9 41.744C142.644 42.224 142.516 42.856 142.516 43.64V50H139.228ZM167.484 50.24C166.22 50.24 165.116 49.992 164.172 49.496C163.244 49 162.524 48.288 162.012 47.36C161.5 46.432 161.244 45.312 161.244 44C161.244 42.688 161.5 41.568 162.012 40.64C162.524 39.712 163.236 39 164.148 38.504C165.076 38.008 166.132 37.76 167.316 37.76C168.532 37.76 169.564 38.008 170.412 38.504C171.26 38.984 171.908 39.648 172.356 40.496C172.804 41.328 173.028 42.28 173.028 43.352C173.028 43.672 173.02 43.976 173.004 44.264C172.988 44.552 172.964 44.808 172.932 45.032H163.355V42.752H171.492L169.908 43.328C169.908 42.32 169.676 41.544 169.212 41C168.764 40.456 168.124 40.184 167.292 40.184C166.684 40.184 166.156 40.328 165.708 40.616C165.276 40.904 164.948 41.336 164.724 41.912C164.5 42.472 164.388 43.184 164.388 44.048C164.388 44.896 164.508 45.6 164.748 46.16C165.004 46.704 165.356 47.112 165.804 47.384C166.268 47.656 166.82 47.792 167.46 47.792C168.164 47.792 168.732 47.656 169.164 47.384C169.596 47.112 169.932 46.736 170.172 46.256L172.788 47.264C172.532 47.888 172.14 48.424 171.612 48.872C171.1 49.32 170.484 49.664 169.764 49.904C169.06 50.128 168.3 50.24 167.484 50.24Z" fill="white"/>
<path fill-rule="evenodd" clip-rule="evenodd" d="M196.793 45.7071C196.402 45.3166 196.402 44.6834 196.793 44.2929L199.086 42L196.793 39.7071C196.402 39.3166 196.402 38.6834 196.793 38.2929C197.183 37.9024 197.817 37.9024 198.207 38.2929L200.923 41.0087C201.47 41.5562 201.47 42.4438 200.923 42.9913L198.207 45.7071C197.817 46.0976 197.183 46.0976 196.793 45.7071ZM193.75 32.3878C195.049 32.0992 196.624 32 198.5 32C200.376 32 201.951 32.0992 203.25 32.3878C204.56 32.679 205.649 33.176 206.486 34.0136C207.324 34.8512 207.821 35.94 208.112 37.2501C208.401 38.5488 208.5 40.1243 208.5 42C208.5 43.8757 208.401 45.4512 208.112 46.7499C207.821 48.06 207.324 49.1488 206.486 49.9864C205.649 50.824 204.56 51.321 203.25 51.6122C201.951 51.9008 200.376 52 198.5 52C196.624 52 195.049 51.9008 193.75 51.6122C192.44 51.321 191.351 50.824 190.514 49.9864C189.676 49.1488 189.179 48.06 188.888 46.7499C188.599 45.4512 188.5 43.8757 188.5 42C188.5 40.1243 188.599 38.5488 188.888 37.2501C189.179 35.94 189.676 34.8512 190.514 34.0136C191.351 33.176 192.44 32.679 193.75 32.3878Z" fill="white"/>
</svg>
