<svg width="269" height="84" viewBox="0 0 269 84" fill="none" xmlns="http://www.w3.org/2000/svg">
<path d="M81.624 45.632C81.32 46.656 80.84 47.512 80.184 48.2C79.528 48.888 78.752 49.4 77.856 49.736C76.96 50.072 75.976 50.24 74.904 50.24C73.336 50.24 71.976 49.912 70.824 49.256C69.688 48.6 68.808 47.664 68.184 46.448C67.576 45.232 67.272 43.776 67.272 42.08C67.272 40.384 67.576 38.928 68.184 37.712C68.808 36.496 69.688 35.56 70.824 34.904C71.976 34.248 73.32 33.92 74.856 33.92C75.944 33.92 76.928 34.072 77.808 34.376C78.688 34.664 79.432 35.112 80.04 35.72C80.664 36.328 81.12 37.096 81.408 38.024L78.408 39.296C78.136 38.336 77.72 37.656 77.16 37.256C76.6 36.84 75.88 36.632 75 36.632C74.136 36.632 73.376 36.84 72.72 37.256C72.08 37.672 71.584 38.288 71.232 39.104C70.88 39.904 70.704 40.896 70.704 42.08C70.704 43.248 70.864 44.24 71.184 45.056C71.52 45.872 72.008 46.488 72.648 46.904C73.288 47.32 74.072 47.528 75 47.528C75.864 47.528 76.608 47.296 77.232 46.832C77.872 46.368 78.32 45.664 78.576 44.72L81.624 45.632ZM89.5828 37.76C90.7988 37.76 91.8628 38.008 92.7748 38.504C93.7028 39 94.4228 39.712 94.9348 40.64C95.4628 41.568 95.7268 42.688 95.7268 44C95.7268 45.296 95.4628 46.416 94.9348 47.36C94.4228 48.288 93.7028 49 92.7748 49.496C91.8628 49.992 90.7988 50.24 89.5828 50.24C88.3828 50.24 87.3188 49.992 86.3908 49.496C85.4628 49 84.7348 48.288 84.2068 47.36C83.6948 46.416 83.4388 45.296 83.4388 44C83.4388 42.688 83.6948 41.568 84.2068 40.64C84.7348 39.712 85.4628 39 86.3908 38.504C87.3188 38.008 88.3828 37.76 89.5828 37.76ZM89.5828 40.208C88.9748 40.208 88.4548 40.352 88.0228 40.64C87.6068 40.912 87.2868 41.328 87.0628 41.888C86.8388 42.448 86.7268 43.152 86.7268 44C86.7268 44.848 86.8388 45.552 87.0628 46.112C87.2868 46.672 87.6068 47.096 88.0228 47.384C88.4548 47.656 88.9748 47.792 89.5828 47.792C90.1748 47.792 90.6788 47.656 91.0948 47.384C91.5268 47.096 91.8548 46.672 92.0788 46.112C92.3028 45.552 92.4148 44.848 92.4148 44C92.4148 43.152 92.3028 42.448 92.0788 41.888C91.8548 41.328 91.5268 40.912 91.0948 40.64C90.6788 40.352 90.1748 40.208 89.5828 40.208ZM98.478 50V38H101.43L101.622 41.6L101.214 41.216C101.406 40.432 101.71 39.784 102.126 39.272C102.542 38.76 103.046 38.384 103.638 38.144C104.246 37.888 104.91 37.76 105.63 37.76C106.462 37.76 107.198 37.92 107.838 38.24C108.494 38.56 109.006 39.048 109.374 39.704C109.758 40.344 109.95 41.152 109.95 42.128V50H106.662V43.064C106.662 42.04 106.462 41.336 106.062 40.952C105.662 40.552 105.142 40.352 104.502 40.352C104.054 40.352 103.614 40.464 103.182 40.688C102.766 40.896 102.422 41.24 102.15 41.72C101.894 42.2 101.766 42.84 101.766 43.64V50H98.478ZM117.492 34.328V46.088C117.492 46.664 117.636 47.088 117.924 47.36C118.228 47.616 118.636 47.744 119.148 47.744C119.548 47.744 119.9 47.688 120.204 47.576C120.508 47.448 120.78 47.28 121.02 47.072L121.548 49.256C121.164 49.56 120.684 49.8 120.108 49.976C119.532 50.152 118.924 50.24 118.284 50.24C117.484 50.24 116.772 50.12 116.148 49.88C115.54 49.64 115.06 49.256 114.708 48.728C114.372 48.2 114.204 47.496 114.204 46.616V35.24L117.492 34.328ZM121.332 38V40.448H111.996V38H121.332ZM130.513 42.344C130.513 41.656 130.313 41.12 129.913 40.736C129.529 40.352 129.017 40.16 128.377 40.16C127.785 40.16 127.265 40.312 126.817 40.616C126.369 40.92 126.041 41.424 125.833 42.128L123.025 41.264C123.297 40.208 123.889 39.36 124.801 38.72C125.729 38.08 126.969 37.76 128.521 37.76C129.577 37.76 130.497 37.928 131.281 38.264C132.065 38.584 132.673 39.072 133.105 39.728C133.553 40.384 133.777 41.208 133.777 42.2V47.072C133.777 47.68 134.065 47.984 134.641 47.984C134.913 47.984 135.169 47.944 135.409 47.864L135.217 49.904C134.801 50.112 134.281 50.216 133.657 50.216C133.097 50.216 132.593 50.12 132.145 49.928C131.697 49.736 131.345 49.448 131.089 49.064C130.833 48.664 130.705 48.168 130.705 47.576V47.48L131.281 47.384C131.185 47.992 130.921 48.512 130.489 48.944C130.057 49.36 129.529 49.68 128.905 49.904C128.297 50.128 127.665 50.24 127.009 50.24C126.193 50.24 125.489 50.12 124.897 49.88C124.305 49.624 123.849 49.256 123.529 48.776C123.209 48.296 123.049 47.704 123.049 47C123.049 46.104 123.337 45.376 123.913 44.816C124.489 44.24 125.313 43.848 126.385 43.64L130.897 42.728L130.873 44.768L127.993 45.344C127.449 45.456 127.033 45.608 126.745 45.8C126.473 45.976 126.337 46.272 126.337 46.688C126.337 47.088 126.481 47.392 126.769 47.6C127.073 47.808 127.433 47.912 127.849 47.912C128.185 47.912 128.513 47.872 128.833 47.792C129.153 47.712 129.441 47.584 129.697 47.408C129.953 47.232 130.153 46.992 130.297 46.688C130.441 46.384 130.513 46.016 130.513 45.584V42.344ZM142.856 37.76C143.928 37.76 144.832 37.92 145.568 38.24C146.32 38.544 146.92 38.968 147.368 39.512C147.832 40.04 148.16 40.632 148.352 41.288L145.28 42.392C145.12 41.672 144.848 41.128 144.464 40.76C144.08 40.392 143.56 40.208 142.904 40.208C142.296 40.208 141.776 40.352 141.344 40.64C140.912 40.912 140.584 41.336 140.36 41.912C140.136 42.472 140.024 43.176 140.024 44.024C140.024 44.872 140.136 45.576 140.36 46.136C140.6 46.696 140.936 47.112 141.368 47.384C141.816 47.656 142.336 47.792 142.928 47.792C143.408 47.792 143.816 47.712 144.152 47.552C144.488 47.376 144.76 47.128 144.968 46.808C145.192 46.488 145.344 46.104 145.424 45.656L148.4 46.616C148.224 47.336 147.896 47.968 147.416 48.512C146.936 49.056 146.32 49.48 145.568 49.784C144.816 50.088 143.944 50.24 142.952 50.24C141.72 50.24 140.632 49.992 139.688 49.496C138.744 49 138.016 48.288 137.504 47.36C136.992 46.432 136.736 45.312 136.736 44C136.736 42.688 136.992 41.568 137.504 40.64C138.016 39.712 138.736 39 139.664 38.504C140.592 38.008 141.656 37.76 142.856 37.76ZM155.203 34.328V46.088C155.203 46.664 155.347 47.088 155.635 47.36C155.939 47.616 156.347 47.744 156.859 47.744C157.259 47.744 157.611 47.688 157.915 47.576C158.219 47.448 158.491 47.28 158.731 47.072L159.259 49.256C158.875 49.56 158.395 49.8 157.819 49.976C157.243 50.152 156.635 50.24 155.995 50.24C155.195 50.24 154.483 50.12 153.859 49.88C153.251 49.64 152.771 49.256 152.419 48.728C152.083 48.2 151.915 47.496 151.915 46.616V35.24L155.203 34.328ZM159.043 38V40.448H149.707V38H159.043ZM186.171 34.16V50H183.171V41.744L183.339 37.112H183.291L178.899 50H176.187L171.819 37.112H171.771L171.939 41.744V50H168.939V34.16H173.739L176.595 42.8L177.603 46.376H177.651L178.683 42.824L181.515 34.16H186.171ZM195.405 50.24C194.141 50.24 193.037 49.992 192.093 49.496C191.165 49 190.445 48.288 189.933 47.36C189.421 46.432 189.165 45.312 189.165 44C189.165 42.688 189.421 41.568 189.933 40.64C190.445 39.712 191.157 39 192.069 38.504C192.997 38.008 194.053 37.76 195.237 37.76C196.453 37.76 197.485 38.008 198.333 38.504C199.181 38.984 199.829 39.648 200.277 40.496C200.725 41.328 200.949 42.28 200.949 43.352C200.949 43.672 200.941 43.976 200.925 44.264C200.909 44.552 200.885 44.808 200.853 45.032H191.277V42.752H199.413L197.829 43.328C197.829 42.32 197.597 41.544 197.133 41C196.685 40.456 196.045 40.184 195.213 40.184C194.605 40.184 194.077 40.328 193.629 40.616C193.197 40.904 192.869 41.336 192.645 41.912C192.421 42.472 192.309 43.184 192.309 44.048C192.309 44.896 192.429 45.6 192.669 46.16C192.925 46.704 193.277 47.112 193.725 47.384C194.189 47.656 194.741 47.792 195.381 47.792C196.085 47.792 196.653 47.656 197.085 47.384C197.517 47.112 197.853 46.736 198.093 46.256L200.709 47.264C200.453 47.888 200.061 48.424 199.533 48.872C199.021 49.32 198.405 49.664 197.685 49.904C196.981 50.128 196.221 50.24 195.405 50.24Z" fill="#4D5566"/>
<rect x="2" y="2" width="265" height="80" rx="14" stroke="#4D5566" stroke-width="4"/>
</svg>
