<svg width="50" height="50" viewBox="0 0 50 50" fill="none" xmlns="http://www.w3.org/2000/svg">
<path d="M33.8756 4.37109C40.746 4.37109 45.3466 9.2101 45.3466 16.4106V33.0288C45.3466 40.211 40.746 45.0521 33.8756 45.0521H16.3044C9.43403 45.0521 4.81323 40.211 4.81323 33.0288V16.4106C4.81323 9.2101 9.43403 4.37109 16.3044 4.37109H33.8756ZM24.3706 14.3766C23.5396 14.3766 22.8506 15.0702 22.8506 15.9021V26.1761C22.8506 26.705 23.1343 27.2135 23.6004 27.4779L31.545 32.2376C31.7882 32.4003 32.0719 32.4613 32.3354 32.4613C32.842 32.4613 33.3487 32.1969 33.6324 31.7087C34.0783 30.9948 33.8351 30.0591 33.1055 29.6136L25.8906 25.3015V15.9021C25.8906 15.0702 25.2218 14.3766 24.3706 14.3766Z" fill="#FDBA74"/>
</svg>
