<svg width="143" height="51" viewBox="0 0 143 51" fill="none" xmlns="http://www.w3.org/2000/svg">
<rect x="0.506592" y="0.515137" width="141.867" height="49.8342" rx="24.9171" fill="#F9FAFB"/>
<path d="M33.1529 30.7363V20.5545H36.5932C37.392 20.5545 38.0449 20.6987 38.552 20.987C39.0624 21.2721 39.4403 21.6582 39.6855 22.1454C39.9308 22.6326 40.0534 23.1762 40.0534 23.7761C40.0534 24.376 39.9308 24.9212 39.6855 25.4118C39.4436 25.9023 39.0691 26.2934 38.562 26.585C38.0549 26.8734 37.4052 27.0176 36.6131 27.0176H34.1472V25.9238H36.5733C37.1202 25.9238 37.5594 25.8294 37.8908 25.6404C38.2222 25.4515 38.4625 25.1963 38.6117 24.8748C38.7641 24.55 38.8404 24.1838 38.8404 23.7761C38.8404 23.3684 38.7641 23.0038 38.6117 22.6824C38.4625 22.3609 38.2206 22.109 37.8858 21.9267C37.5511 21.7411 37.1069 21.6483 36.5534 21.6483H34.3858V30.7363H33.1529ZM41.8805 30.7363V23.1H43.014V24.2534H43.0936C43.2328 23.8755 43.4847 23.569 43.8493 23.3336C44.2138 23.0983 44.6248 22.9806 45.0822 22.9806C45.1684 22.9806 45.2761 22.9823 45.4054 22.9856C45.5346 22.9889 45.6324 22.9939 45.6987 23.0005V24.1937C45.6589 24.1838 45.5678 24.1689 45.4252 24.149C45.286 24.1258 45.1386 24.1142 44.9828 24.1142C44.6116 24.1142 44.2801 24.1921 43.9885 24.3478C43.7001 24.5003 43.4714 24.7124 43.3024 24.9842C43.1367 25.2527 43.0538 25.5592 43.0538 25.9039V30.7363H41.8805ZM49.9593 30.8954C49.2699 30.8954 48.6651 30.7314 48.1447 30.4032C47.6277 30.0751 47.2233 29.6161 46.9316 29.0261C46.6433 28.4361 46.4991 27.7467 46.4991 26.9579C46.4991 26.1625 46.6433 25.4681 46.9316 24.8748C47.2233 24.2815 47.6277 23.8208 48.1447 23.4927C48.6651 23.1646 49.2699 23.0005 49.9593 23.0005C50.6487 23.0005 51.252 23.1646 51.769 23.4927C52.2894 23.8208 52.6937 24.2815 52.9821 24.8748C53.2737 25.4681 53.4196 26.1625 53.4196 26.9579C53.4196 27.7467 53.2737 28.4361 52.9821 29.0261C52.6937 29.6161 52.2894 30.0751 51.769 30.4032C51.252 30.7314 50.6487 30.8954 49.9593 30.8954ZM49.9593 29.8414C50.483 29.8414 50.9139 29.7072 51.252 29.4387C51.59 29.1703 51.8403 28.8173 52.0027 28.3798C52.1651 27.9423 52.2463 27.4683 52.2463 26.9579C52.2463 26.4475 52.1651 25.9719 52.0027 25.5311C51.8403 25.0903 51.59 24.734 51.252 24.4622C50.9139 24.1904 50.483 24.0545 49.9593 24.0545C49.4357 24.0545 49.0048 24.1904 48.6667 24.4622C48.3287 24.734 48.0784 25.0903 47.916 25.5311C47.7536 25.9719 47.6724 26.4475 47.6724 26.9579C47.6724 27.4683 47.7536 27.9423 47.916 28.3798C48.0784 28.8173 48.3287 29.1703 48.6667 29.4387C49.0048 29.7072 49.4357 29.8414 49.9593 29.8414ZM55.2106 23.1H56.3839V31.2931C56.3839 31.7638 56.3027 32.1715 56.1403 32.5162C55.9812 32.8609 55.7392 33.1277 55.4144 33.3166C55.0929 33.5055 54.6869 33.6 54.1964 33.6C54.1566 33.6 54.1168 33.6 54.0771 33.6C54.0373 33.6 53.9975 33.6 53.9577 33.6V32.5062C53.9975 32.5062 54.034 32.5062 54.0671 32.5062C54.1003 32.5062 54.1367 32.5062 54.1765 32.5062C54.5344 32.5062 54.7963 32.4002 54.962 32.188C55.1277 31.9792 55.2106 31.6809 55.2106 31.2931V23.1ZM55.7873 21.8272C55.5586 21.8272 55.3614 21.7493 55.1957 21.5936C55.0333 21.4378 54.9521 21.2505 54.9521 21.0318C54.9521 20.813 55.0333 20.6258 55.1957 20.47C55.3614 20.3142 55.5586 20.2363 55.7873 20.2363C56.016 20.2363 56.2115 20.3142 56.3739 20.47C56.5397 20.6258 56.6225 20.813 56.6225 21.0318C56.6225 21.2505 56.5397 21.4378 56.3739 21.5936C56.2115 21.7493 56.016 21.8272 55.7873 21.8272ZM61.7346 30.8954C60.9988 30.8954 60.3641 30.733 59.8304 30.4082C59.3001 30.0801 58.8908 29.6227 58.6025 29.036C58.3174 28.4461 58.1749 27.76 58.1749 26.9778C58.1749 26.1956 58.3174 25.5062 58.6025 24.9096C58.8908 24.3097 59.2918 23.8424 59.8056 23.5076C60.3226 23.1696 60.9258 23.0005 61.6152 23.0005C62.013 23.0005 62.4057 23.0668 62.7935 23.1994C63.1813 23.332 63.5343 23.5474 63.8525 23.8457C64.1706 24.1407 64.4242 24.5318 64.6131 25.019C64.802 25.5062 64.8965 26.1061 64.8965 26.8187V27.3159H59.0101V26.3017H63.7033C63.7033 25.8708 63.6171 25.4863 63.4448 25.1483C63.2757 24.8102 63.0338 24.5434 62.7189 24.3478C62.4074 24.1523 62.0395 24.0545 61.6152 24.0545C61.1479 24.0545 60.7435 24.1705 60.4022 24.4025C60.0641 24.6312 59.8039 24.9295 59.6216 25.2974C59.4393 25.6653 59.3482 26.0597 59.3482 26.4806V27.1568C59.3482 27.7335 59.4476 28.2224 59.6465 28.6234C59.8487 29.0211 60.1287 29.3244 60.4867 29.5332C60.8446 29.7387 61.2606 29.8414 61.7346 29.8414C62.0428 29.8414 62.3212 29.7984 62.5698 29.7122C62.8217 29.6227 63.0388 29.4901 63.2211 29.3145C63.4034 29.1355 63.5442 28.9134 63.6436 28.6483L64.7772 28.9664C64.6578 29.3509 64.4573 29.689 64.1756 29.9806C63.8939 30.269 63.5459 30.4944 63.1316 30.6568C62.7173 30.8159 62.2516 30.8954 61.7346 30.8954ZM69.7836 30.8954C69.0676 30.8954 68.4512 30.7264 67.9341 30.3883C67.4171 30.0502 67.0194 29.5846 66.7409 28.9913C66.4625 28.398 66.3233 27.7202 66.3233 26.9579C66.3233 26.1824 66.4658 25.4979 66.7509 24.9047C67.0392 24.3081 67.4403 23.8424 67.954 23.5076C68.4711 23.1696 69.0743 23.0005 69.7637 23.0005C70.3006 23.0005 70.7845 23.1 71.2154 23.2988C71.6462 23.4977 71.9992 23.7761 72.2743 24.1341C72.5494 24.492 72.7201 24.9096 72.7864 25.3869H71.6131C71.5236 25.0389 71.3248 24.7306 71.0165 24.4622C70.7116 24.1904 70.3006 24.0545 69.7836 24.0545C69.3262 24.0545 68.9251 24.1738 68.5804 24.4125C68.2391 24.6478 67.9722 24.9809 67.78 25.4118C67.5911 25.8393 67.4966 26.3414 67.4966 26.9181C67.4966 27.5081 67.5894 28.0218 67.775 28.4593C67.964 28.8968 68.2291 29.2366 68.5705 29.4785C68.9152 29.7205 69.3195 29.8414 69.7836 29.8414C70.0885 29.8414 70.3652 29.7884 70.6138 29.6824C70.8624 29.5763 71.0729 29.4238 71.2452 29.225C71.4176 29.0261 71.5402 28.7875 71.6131 28.5091H72.7864C72.7201 28.9598 72.556 29.3658 72.2942 29.7271C72.0357 30.085 71.6926 30.3701 71.2651 30.5822C70.8409 30.791 70.347 30.8954 69.7836 30.8954ZM77.8226 23.1V24.0943H73.8652V23.1H77.8226ZM75.0186 21.2704H76.1919V28.5488C76.1919 28.8803 76.24 29.1288 76.3361 29.2946C76.4355 29.457 76.5615 29.5663 76.714 29.6227C76.8697 29.6757 77.0338 29.7022 77.2061 29.7022C77.3354 29.7022 77.4415 29.6956 77.5243 29.6824C77.6072 29.6658 77.6735 29.6525 77.7232 29.6426L77.9618 30.6966C77.8823 30.7264 77.7712 30.7562 77.6287 30.786C77.4862 30.8192 77.3056 30.8358 77.0868 30.8358C76.7554 30.8358 76.4306 30.7645 76.1124 30.622C75.7975 30.4795 75.5357 30.2624 75.3269 29.9707C75.1214 29.679 75.0186 29.3111 75.0186 28.867V21.2704ZM84.8599 24.8102L83.8059 25.1085C83.7396 24.9328 83.6419 24.7621 83.5126 24.5964C83.3867 24.4274 83.2143 24.2882 82.9956 24.1788C82.7768 24.0694 82.4967 24.0147 82.1554 24.0147C81.688 24.0147 81.2986 24.1225 80.987 24.3379C80.6788 24.55 80.5247 24.8201 80.5247 25.1483C80.5247 25.4399 80.6307 25.6703 80.8429 25.8393C81.055 26.0083 81.3864 26.1492 81.8372 26.2619L82.9707 26.5403C83.6535 26.706 84.1622 26.9596 84.497 27.301C84.8317 27.639 84.9991 28.0749 84.9991 28.6085C84.9991 29.046 84.8732 29.4371 84.6213 29.7818C84.3727 30.1265 84.0247 30.3983 83.5772 30.5971C83.1298 30.796 82.6094 30.8954 82.0162 30.8954C81.2373 30.8954 80.5926 30.7264 80.0822 30.3883C79.5718 30.0502 79.2486 29.5564 79.1127 28.9068L80.2264 28.6284C80.3324 29.0394 80.533 29.3476 80.8279 29.5531C81.1262 29.7586 81.5157 29.8613 81.9963 29.8613C82.5431 29.8613 82.9773 29.7453 83.2988 29.5133C83.6236 29.278 83.786 28.9963 83.786 28.6681C83.786 28.403 83.6932 28.1809 83.5076 28.002C83.322 27.8197 83.037 27.6838 82.6525 27.5943L81.3798 27.296C80.6805 27.1303 80.1667 26.8734 79.8386 26.5254C79.5138 26.1741 79.3514 25.7349 79.3514 25.2079C79.3514 24.777 79.4724 24.3959 79.7143 24.0645C79.9596 23.733 80.2927 23.4728 80.7136 23.2839C81.1378 23.095 81.6184 23.0005 82.1554 23.0005C82.911 23.0005 83.5043 23.1663 83.9352 23.4977C84.3694 23.8291 84.6776 24.2666 84.8599 24.8102Z" fill="#FB923C"/>
</svg>
