<svg width="132" height="51" viewBox="0 0 132 51" fill="none" xmlns="http://www.w3.org/2000/svg">
<rect x="0.58667" y="0.515137" width="130.72" height="49.8342" rx="24.9171" fill="#F9FAFB"/>
<path d="M26.1397 30.7363V20.5545H29.58C30.3788 20.5545 31.0317 20.6987 31.5388 20.987C32.0493 21.2721 32.4271 21.6582 32.6724 22.1454C32.9176 22.6326 33.0403 23.1762 33.0403 23.7761C33.0403 24.376 32.9176 24.9212 32.6724 25.4118C32.4304 25.9023 32.0559 26.2934 31.5488 26.585C31.0417 26.8734 30.3921 27.0176 29.5999 27.0176H27.134V25.9238H29.5601C30.107 25.9238 30.5462 25.8294 30.8776 25.6404C31.2091 25.4515 31.4494 25.1963 31.5985 24.8748C31.751 24.55 31.8272 24.1838 31.8272 23.7761C31.8272 23.3684 31.751 23.0038 31.5985 22.6824C31.4494 22.3609 31.2074 22.109 30.8726 21.9267C30.5379 21.7411 30.0938 21.6483 29.5403 21.6483H27.3726V30.7363H26.1397ZM39.6798 27.6142V23.1H40.8531V30.7363H39.6798V29.4437H39.6003C39.4213 29.8315 39.1429 30.1613 38.765 30.4331C38.3872 30.7015 37.9099 30.8358 37.3332 30.8358C36.856 30.8358 36.4317 30.7314 36.0605 30.5225C35.6893 30.3104 35.3976 29.9922 35.1855 29.568C34.9734 29.1404 34.8673 28.6019 34.8673 27.9522V23.1H36.0406V27.8727C36.0406 28.4295 36.1964 28.8736 36.5079 29.2051C36.8228 29.5365 37.2239 29.7022 37.7111 29.7022C38.0027 29.7022 38.2994 29.6277 38.601 29.4785C38.9059 29.3294 39.1611 29.1007 39.3666 28.7924C39.5754 28.4842 39.6798 28.0914 39.6798 27.6142ZM43.1612 30.7363V20.5545H44.3345V24.313H44.4339C44.5201 24.1805 44.6394 24.0114 44.7919 23.8059C44.9476 23.5971 45.1697 23.4115 45.4581 23.2491C45.7497 23.0834 46.1441 23.0005 46.6413 23.0005C47.2843 23.0005 47.851 23.1613 48.3416 23.4828C48.8321 23.8043 49.2149 24.26 49.49 24.85C49.7651 25.4399 49.9027 26.1359 49.9027 26.938C49.9027 27.7467 49.7651 28.4477 49.49 29.041C49.2149 29.631 48.8338 30.0884 48.3465 30.4132C47.8593 30.7347 47.2975 30.8954 46.6612 30.8954C46.1706 30.8954 45.7779 30.8142 45.4829 30.6518C45.1879 30.4861 44.9609 30.2988 44.8018 30.09C44.6427 29.8779 44.5201 29.7022 44.4339 29.563H44.2947V30.7363H43.1612ZM44.3146 26.9181C44.3146 27.4949 44.3991 28.0036 44.5681 28.4444C44.7372 28.8819 44.9841 29.225 45.3089 29.4735C45.6337 29.7188 46.0314 29.8414 46.5021 29.8414C46.9926 29.8414 47.4019 29.7122 47.7301 29.4537C48.0615 29.1918 48.3101 28.8405 48.4758 28.3997C48.6448 27.9556 48.7294 27.4617 48.7294 26.9181C48.7294 26.3812 48.6465 25.8973 48.4808 25.4664C48.3184 25.0323 48.0715 24.6892 47.74 24.4373C47.4119 24.1821 46.9992 24.0545 46.5021 24.0545C46.0248 24.0545 45.6238 24.1755 45.299 24.4174C44.9742 24.6561 44.7289 24.9908 44.5632 25.4217C44.3974 25.8493 44.3146 26.3481 44.3146 26.9181ZM52.8707 20.5545V30.7363H51.6974V20.5545H52.8707ZM55.0197 30.7363V23.1H56.193V30.7363H55.0197ZM55.6163 21.8272C55.3876 21.8272 55.1904 21.7493 55.0246 21.5936C54.8622 21.4378 54.781 21.2505 54.781 21.0318C54.781 20.813 54.8622 20.6258 55.0246 20.47C55.1904 20.3142 55.3876 20.2363 55.6163 20.2363C55.8449 20.2363 56.0405 20.3142 56.2029 20.47C56.3686 20.6258 56.4515 20.813 56.4515 21.0318C56.4515 21.2505 56.3686 21.4378 56.2029 21.5936C56.0405 21.7493 55.8449 21.8272 55.6163 21.8272ZM61.4442 30.8954C60.7283 30.8954 60.1118 30.7264 59.5948 30.3883C59.0777 30.0502 58.68 29.5846 58.4016 28.9913C58.1232 28.398 57.984 27.7202 57.984 26.9579C57.984 26.1824 58.1265 25.4979 58.4115 24.9047C58.6999 24.3081 59.1009 23.8424 59.6147 23.5076C60.1317 23.1696 60.7349 23.0005 61.4243 23.0005C61.9612 23.0005 62.4451 23.1 62.876 23.2988C63.3069 23.4977 63.6599 23.7761 63.935 24.1341C64.2101 24.492 64.3808 24.9096 64.447 25.3869H63.2737C63.1843 25.0389 62.9854 24.7306 62.6772 24.4622C62.3722 24.1904 61.9612 24.0545 61.4442 24.0545C60.9868 24.0545 60.5858 24.1738 60.2411 24.4125C59.8997 24.6478 59.6329 24.9809 59.4407 25.4118C59.2517 25.8393 59.1573 26.3414 59.1573 26.9181C59.1573 27.5081 59.2501 28.0218 59.4357 28.4593C59.6246 28.8968 59.8898 29.2366 60.2311 29.4785C60.5758 29.7205 60.9802 29.8414 61.4442 29.8414C61.7491 29.8414 62.0259 29.7884 62.2745 29.6824C62.523 29.5763 62.7335 29.4238 62.9059 29.225C63.0782 29.0261 63.2008 28.7875 63.2737 28.5091H64.447C64.3808 28.9598 64.2167 29.3658 63.9549 29.7271C63.6963 30.085 63.3533 30.3701 62.9257 30.5822C62.5015 30.791 62.0076 30.8954 61.4442 30.8954ZM68.4094 30.9153C67.9255 30.9153 67.4863 30.8242 67.0919 30.6419C66.6975 30.4563 66.3843 30.1895 66.1523 29.8414C65.9203 29.4901 65.8043 29.0659 65.8043 28.5687C65.8043 28.1312 65.8905 27.7766 66.0628 27.5048C66.2352 27.2297 66.4655 27.0143 66.7539 26.8585C67.0422 26.7027 67.3604 26.5867 67.7084 26.5105C68.0597 26.4309 68.4127 26.368 68.7674 26.3216C69.2314 26.2619 69.6076 26.2172 69.8959 26.1873C70.1876 26.1542 70.3997 26.0995 70.5323 26.0233C70.6682 25.947 70.7361 25.8145 70.7361 25.6255V25.5858C70.7361 25.0952 70.6019 24.7141 70.3334 24.4423C70.0683 24.1705 69.6656 24.0346 69.1253 24.0346C68.5652 24.0346 68.126 24.1573 67.8078 24.4025C67.4897 24.6478 67.2659 24.9096 67.1367 25.188L66.023 24.7903C66.2219 24.3263 66.4871 23.965 66.8185 23.7065C67.1532 23.4447 67.5178 23.2624 67.9122 23.1596C68.31 23.0536 68.7011 23.0005 69.0855 23.0005C69.3308 23.0005 69.6125 23.0304 69.9307 23.09C70.2522 23.1464 70.5621 23.264 70.8604 23.443C71.162 23.622 71.4122 23.8921 71.6111 24.2534C71.81 24.6146 71.9094 25.0985 71.9094 25.7051V30.7363H70.7361V29.7022H70.6764C70.5969 29.868 70.4643 30.0453 70.2787 30.2342C70.0931 30.4231 69.8462 30.5839 69.538 30.7164C69.2297 30.849 68.8535 30.9153 68.4094 30.9153ZM68.5884 29.8613C69.0524 29.8613 69.4435 29.7702 69.7617 29.5879C70.0832 29.4056 70.3251 29.1703 70.4875 28.8819C70.6532 28.5936 70.7361 28.2903 70.7361 27.9721V26.8983C70.6864 26.9579 70.577 27.0126 70.408 27.0623C70.2423 27.1087 70.05 27.1502 69.8313 27.1866C69.6158 27.2198 69.4054 27.2496 69.1999 27.2761C68.9977 27.2993 68.8336 27.3192 68.7077 27.3358C68.4028 27.3755 68.1177 27.4402 67.8526 27.5297C67.5907 27.6158 67.3786 27.7467 67.2162 27.9224C67.0571 28.0948 66.9776 28.3301 66.9776 28.6284C66.9776 29.036 67.1284 29.3443 67.43 29.5531C67.7349 29.7586 68.121 29.8613 68.5884 29.8613ZM77.3719 23.1V24.0943H73.4146V23.1H77.3719ZM74.568 21.2704H75.7413V28.5488C75.7413 28.8803 75.7893 29.1288 75.8854 29.2946C75.9849 29.457 76.1108 29.5663 76.2633 29.6227C76.419 29.6757 76.5831 29.7022 76.7555 29.7022C76.8847 29.7022 76.9908 29.6956 77.0736 29.6824C77.1565 29.6658 77.2228 29.6525 77.2725 29.6426L77.5111 30.6966C77.4316 30.7264 77.3206 30.7562 77.178 30.786C77.0355 30.8192 76.8549 30.8358 76.6361 30.8358C76.3047 30.8358 75.9799 30.7645 75.6617 30.622C75.3468 30.4795 75.085 30.2624 74.8762 29.9707C74.6707 29.679 74.568 29.3111 74.568 28.867V21.2704ZM79.1369 30.7363V23.1H80.3101V30.7363H79.1369ZM79.7334 21.8272C79.5047 21.8272 79.3075 21.7493 79.1418 21.5936C78.9794 21.4378 78.8982 21.2505 78.8982 21.0318C78.8982 20.813 78.9794 20.6258 79.1418 20.47C79.3075 20.3142 79.5047 20.2363 79.7334 20.2363C79.9621 20.2363 80.1577 20.3142 80.3201 20.47C80.4858 20.6258 80.5687 20.813 80.5687 21.0318C80.5687 21.2505 80.4858 21.4378 80.3201 21.5936C80.1577 21.7493 79.9621 21.8272 79.7334 21.8272ZM85.5614 30.8954C84.872 30.8954 84.2671 30.7314 83.7468 30.4032C83.2297 30.0751 82.8254 29.6161 82.5337 29.0261C82.2453 28.4361 82.1012 27.7467 82.1012 26.9579C82.1012 26.1625 82.2453 25.4681 82.5337 24.8748C82.8254 24.2815 83.2297 23.8208 83.7468 23.4927C84.2671 23.1646 84.872 23.0005 85.5614 23.0005C86.2508 23.0005 86.854 23.1646 87.371 23.4927C87.8914 23.8208 88.2958 24.2815 88.5841 24.8748C88.8758 25.4681 89.0216 26.1625 89.0216 26.9579C89.0216 27.7467 88.8758 28.4361 88.5841 29.0261C88.2958 29.6161 87.8914 30.0751 87.371 30.4032C86.854 30.7314 86.2508 30.8954 85.5614 30.8954ZM85.5614 29.8414C86.0851 29.8414 86.5159 29.7072 86.854 29.4387C87.1921 29.1703 87.4423 28.8173 87.6047 28.3798C87.7671 27.9423 87.8483 27.4683 87.8483 26.9579C87.8483 26.4475 87.7671 25.9719 87.6047 25.5311C87.4423 25.0903 87.1921 24.734 86.854 24.4622C86.5159 24.1904 86.0851 24.0545 85.5614 24.0545C85.0377 24.0545 84.6068 24.1904 84.2688 24.4622C83.9307 24.734 83.6805 25.0903 83.5181 25.5311C83.3557 25.9719 83.2745 26.4475 83.2745 26.9579C83.2745 27.4683 83.3557 27.9423 83.5181 28.3798C83.6805 28.8173 83.9307 29.1703 84.2688 29.4387C84.6068 29.7072 85.0377 29.8414 85.5614 29.8414ZM91.9859 26.1426V30.7363H90.8126V23.1H91.9462V24.2931H92.0456C92.2246 23.9054 92.4963 23.5938 92.8609 23.3585C93.2255 23.1199 93.6962 23.0005 94.2729 23.0005C94.7899 23.0005 95.2423 23.1066 95.6301 23.3187C96.0179 23.5275 96.3195 23.8457 96.5349 24.2733C96.7504 24.6975 96.8581 25.2344 96.8581 25.8841V30.7363H95.6848V25.9636C95.6848 25.3637 95.529 24.8964 95.2175 24.5616C94.9059 24.2235 94.4784 24.0545 93.9348 24.0545C93.5603 24.0545 93.2255 24.1357 92.9305 24.2981C92.6389 24.4605 92.4085 24.6975 92.2395 25.0091C92.0704 25.3206 91.9859 25.6984 91.9859 26.1426ZM104.411 24.8102L103.357 25.1085C103.291 24.9328 103.193 24.7621 103.064 24.5964C102.938 24.4274 102.766 24.2882 102.547 24.1788C102.328 24.0694 102.048 24.0147 101.707 24.0147C101.239 24.0147 100.85 24.1225 100.538 24.3379C100.23 24.55 100.076 24.8201 100.076 25.1483C100.076 25.4399 100.182 25.6703 100.394 25.8393C100.606 26.0083 100.938 26.1492 101.388 26.2619L102.522 26.5403C103.205 26.706 103.713 26.9596 104.048 27.301C104.383 27.639 104.55 28.0749 104.55 28.6085C104.55 29.046 104.424 29.4371 104.173 29.7818C103.924 30.1265 103.576 30.3983 103.129 30.5971C102.681 30.796 102.161 30.8954 101.567 30.8954C100.789 30.8954 100.144 30.7264 99.6335 30.3883C99.1231 30.0502 98.7999 29.5564 98.664 28.9068L99.7777 28.6284C99.8837 29.0394 100.084 29.3476 100.379 29.5531C100.678 29.7586 101.067 29.8613 101.548 29.8613C102.094 29.8613 102.529 29.7453 102.85 29.5133C103.175 29.278 103.337 28.9963 103.337 28.6681C103.337 28.403 103.245 28.1809 103.059 28.002C102.873 27.8197 102.588 27.6838 102.204 27.5943L100.931 27.296C100.232 27.1303 99.718 26.8734 99.3899 26.5254C99.0651 26.1741 98.9027 25.7349 98.9027 25.2079C98.9027 24.777 99.0236 24.3959 99.2656 24.0645C99.5108 23.733 99.8439 23.4728 100.265 23.2839C100.689 23.095 101.17 23.0005 101.707 23.0005C102.462 23.0005 103.056 23.1663 103.486 23.4977C103.921 23.8291 104.229 24.2666 104.411 24.8102Z" fill="#0F766E"/>
</svg>
